<?xml version="1.0" encoding="UTF-8" standalone="no"?>
<!DOCTYPE svg PUBLIC "-//W3C//DTD SVG 1.1//EN"
 "http://www.w3.org/Graphics/SVG/1.1/DTD/svg11.dtd">
<!-- Generated by graphviz version 2.38.0 (20140413.2041)
 -->
<!-- Title: controllers_diagram Pages: 1 -->
<svg width="678pt" height="599pt"
 viewBox="0.00 0.00 677.50 599.00" xmlns="http://www.w3.org/2000/svg" xmlns:xlink="http://www.w3.org/1999/xlink">
<g id="graph0" class="graph" transform="scale(1 1) rotate(0) translate(260 355.5)">
<title>controllers_diagram</title>
<polygon fill="none" stroke="none" points="-260,243.5 -260,-355.5 417.5,-355.5 417.5,243.5 -260,243.5"/>
<!-- _diagram_info -->
<g id="node1" class="node"><title>_diagram_info</title>
<text text-anchor="start" x="88" y="128.4" font-family="Times,serif" font-size="13.00">Controllers diagram</text>
<text text-anchor="start" x="88" y="142.4" font-family="Times,serif" font-size="13.00">Date: Aug 09 2017 &#45; 19:29</text>
<text text-anchor="start" x="88" y="156.4" font-family="Times,serif" font-size="13.00">Migration version: 20170809232715</text>
<text text-anchor="start" x="88" y="170.4" font-family="Times,serif" font-size="13.00">Generated by RailRoady 1.5.3</text>
<text text-anchor="start" x="88" y="184.4" font-family="Times,serif" font-size="13.00">http://railroady.prestonlee.com</text>
</g>
<!-- Users::OmniauthCallbacksController -->
<g id="node2" class="node"><title>Users::OmniauthCallbacksController</title>
<path fill="none" stroke="black" d="M172,-161C172,-161 366,-161 366,-161 372,-161 378,-167 378,-173 378,-173 378,-243 378,-243 378,-249 372,-255 366,-255 366,-255 172,-255 172,-255 166,-255 160,-249 160,-243 160,-243 160,-173 160,-173 160,-167 166,-161 172,-161"/>
<text text-anchor="middle" x="269" y="-239.8" font-family="Times,serif" font-size="14.00">Users::OmniauthCallbacksController</text>
<polyline fill="none" stroke="black" points="160,-232 378,-232 "/>
<polyline fill="none" stroke="black" points="160,-208 378,-208 "/>
<polyline fill="none" stroke="black" points="160,-184 378,-184 "/>
<text text-anchor="start" x="168" y="-168.8" font-family="Times,serif" font-size="14.00">_layout</text>
</g>
<!-- Users::UnlocksController -->
<g id="node3" class="node"><title>Users::UnlocksController</title>
<path fill="none" stroke="black" d="M-243.5,-33C-243.5,-33 -112.5,-33 -112.5,-33 -106.5,-33 -100.5,-39 -100.5,-45 -100.5,-45 -100.5,-115 -100.5,-115 -100.5,-121 -106.5,-127 -112.5,-127 -112.5,-127 -243.5,-127 -243.5,-127 -249.5,-127 -255.5,-121 -255.5,-115 -255.5,-115 -255.5,-45 -255.5,-45 -255.5,-39 -249.5,-33 -243.5,-33"/>
<text text-anchor="middle" x="-178" y="-111.8" font-family="Times,serif" font-size="14.00">Users::UnlocksController</text>
<polyline fill="none" stroke="black" points="-255.5,-104 -100.5,-104 "/>
<polyline fill="none" stroke="black" points="-255.5,-80 -100.5,-80 "/>
<polyline fill="none" stroke="black" points="-255.5,-56 -100.5,-56 "/>
<text text-anchor="start" x="-247.5" y="-40.8" font-family="Times,serif" font-size="14.00">_layout</text>
</g>
<!-- Users::RegistrationsController -->
<g id="node4" class="node"><title>Users::RegistrationsController</title>
<path fill="none" stroke="black" d="M-68,-161C-68,-161 114,-161 114,-161 120,-161 126,-167 126,-173 126,-173 126,-257 126,-257 126,-263 120,-269 114,-269 114,-269 -68,-269 -68,-269 -74,-269 -80,-263 -80,-257 -80,-257 -80,-173 -80,-173 -80,-167 -74,-161 -68,-161"/>
<text text-anchor="middle" x="23" y="-253.8" font-family="Times,serif" font-size="14.00">Users::RegistrationsController</text>
<polyline fill="none" stroke="black" points="-80,-246 126,-246 "/>
<text text-anchor="start" x="-72" y="-230.8" font-family="Times,serif" font-size="14.00">configure_account_update_params</text>
<text text-anchor="start" x="-72" y="-215.8" font-family="Times,serif" font-size="14.00">configure_sign_up_params</text>
<polyline fill="none" stroke="black" points="-80,-208 126,-208 "/>
<polyline fill="none" stroke="black" points="-80,-184 126,-184 "/>
<text text-anchor="start" x="-72" y="-168.8" font-family="Times,serif" font-size="14.00">_layout</text>
</g>
<!-- Users::ConfirmationsController -->
<g id="node5" class="node"><title>Users::ConfirmationsController</title>
<path fill="none" stroke="black" d="M236.5,79C236.5,79 401.5,79 401.5,79 407.5,79 413.5,73 413.5,67 413.5,67 413.5,-3 413.5,-3 413.5,-9 407.5,-15 401.5,-15 401.5,-15 236.5,-15 236.5,-15 230.5,-15 224.5,-9 224.5,-3 224.5,-3 224.5,67 224.5,67 224.5,73 230.5,79 236.5,79"/>
<text text-anchor="middle" x="319" y="0.2" font-family="Times,serif" font-size="14.00">Users::ConfirmationsController</text>
<polyline fill="none" stroke="black" points="224.5,8 413.5,8 "/>
<polyline fill="none" stroke="black" points="224.5,32 413.5,32 "/>
<polyline fill="none" stroke="black" points="224.5,56 413.5,56 "/>
<text text-anchor="start" x="232.5" y="71.2" font-family="Times,serif" font-size="14.00">_layout</text>
</g>
<!-- Users::PasswordsController -->
<g id="node6" class="node"><title>Users::PasswordsController</title>
<path fill="none" stroke="black" d="M-228.5,239C-228.5,239 -85.5,239 -85.5,239 -79.5,239 -73.5,233 -73.5,227 -73.5,227 -73.5,157 -73.5,157 -73.5,151 -79.5,145 -85.5,145 -85.5,145 -228.5,145 -228.5,145 -234.5,145 -240.5,151 -240.5,157 -240.5,157 -240.5,227 -240.5,227 -240.5,233 -234.5,239 -228.5,239"/>
<text text-anchor="middle" x="-157" y="160.2" font-family="Times,serif" font-size="14.00">Users::PasswordsController</text>
<polyline fill="none" stroke="black" points="-240.5,168 -73.5,168 "/>
<polyline fill="none" stroke="black" points="-240.5,192 -73.5,192 "/>
<polyline fill="none" stroke="black" points="-240.5,216 -73.5,216 "/>
<text text-anchor="start" x="-232.5" y="231.2" font-family="Times,serif" font-size="14.00">_layout</text>
</g>
<!-- Users::SessionsController -->
<g id="node7" class="node"><title>Users::SessionsController</title>
<path fill="none" stroke="black" d="M-243.5,95C-243.5,95 -110.5,95 -110.5,95 -104.5,95 -98.5,89 -98.5,83 -98.5,83 -98.5,13 -98.5,13 -98.5,7 -104.5,1 -110.5,1 -110.5,1 -243.5,1 -243.5,1 -249.5,1 -255.5,7 -255.5,13 -255.5,13 -255.5,83 -255.5,83 -255.5,89 -249.5,95 -243.5,95"/>
<text text-anchor="middle" x="-177" y="16.2" font-family="Times,serif" font-size="14.00">Users::SessionsController</text>
<polyline fill="none" stroke="black" points="-255.5,24 -98.5,24 "/>
<polyline fill="none" stroke="black" points="-255.5,48 -98.5,48 "/>
<polyline fill="none" stroke="black" points="-255.5,72 -98.5,72 "/>
<text text-anchor="start" x="-247.5" y="87.2" font-family="Times,serif" font-size="14.00">_layout</text>
</g>
<!-- SongsController -->
<g id="node8" class="node"><title>SongsController</title>
<path fill="none" stroke="black" d="M-51.5,111.5C-51.5,111.5 29.5,111.5 29.5,111.5 35.5,111.5 41.5,105.5 41.5,99.5 41.5,99.5 41.5,-89.5 41.5,-89.5 41.5,-95.5 35.5,-101.5 29.5,-101.5 29.5,-101.5 -51.5,-101.5 -51.5,-101.5 -57.5,-101.5 -63.5,-95.5 -63.5,-89.5 -63.5,-89.5 -63.5,99.5 -63.5,99.5 -63.5,105.5 -57.5,111.5 -51.5,111.5"/>
<text text-anchor="middle" x="-11" y="-86.3" font-family="Times,serif" font-size="14.00">SongsController</text>
<polyline fill="none" stroke="black" points="-63.5,-78.5 41.5,-78.5 "/>
<text text-anchor="start" x="-55.5" y="-63.3" font-family="Times,serif" font-size="14.00">create</text>
<text text-anchor="start" x="-55.5" y="-48.3" font-family="Times,serif" font-size="14.00">destroy</text>
<text text-anchor="start" x="-55.5" y="-33.3" font-family="Times,serif" font-size="14.00">edit</text>
<text text-anchor="start" x="-55.5" y="-18.3" font-family="Times,serif" font-size="14.00">index</text>
<text text-anchor="start" x="-55.5" y="-3.3" font-family="Times,serif" font-size="14.00">new</text>
<text text-anchor="start" x="-55.5" y="11.7" font-family="Times,serif" font-size="14.00">show</text>
<text text-anchor="start" x="-55.5" y="26.7" font-family="Times,serif" font-size="14.00">update</text>
<polyline fill="none" stroke="black" points="-63.5,34.5 41.5,34.5 "/>
<polyline fill="none" stroke="black" points="-63.5,58.5 41.5,58.5 "/>
<text text-anchor="start" x="-55.5" y="73.7" font-family="Times,serif" font-size="14.00">_layout</text>
<text text-anchor="start" x="-55.5" y="88.7" font-family="Times,serif" font-size="14.00">set_song</text>
<text text-anchor="start" x="-55.5" y="103.7" font-family="Times,serif" font-size="14.00">song_params</text>
</g>
<!-- ApplicationController -->
<g id="node9" class="node"><title>ApplicationController</title>
<path fill="none" stroke="black" d="M-244,-257C-244,-257 -132,-257 -132,-257 -126,-257 -120,-263 -120,-269 -120,-269 -120,-339 -120,-339 -120,-345 -126,-351 -132,-351 -132,-351 -244,-351 -244,-351 -250,-351 -256,-345 -256,-339 -256,-339 -256,-269 -256,-269 -256,-263 -250,-257 -244,-257"/>
<text text-anchor="middle" x="-188" y="-335.8" font-family="Times,serif" font-size="14.00">ApplicationController</text>
<polyline fill="none" stroke="black" points="-256,-328 -120,-328 "/>
<polyline fill="none" stroke="black" points="-256,-304 -120,-304 "/>
<polyline fill="none" stroke="black" points="-256,-280 -120,-280 "/>
<text text-anchor="start" x="-248" y="-264.8" font-family="Times,serif" font-size="14.00">_layout</text>
</g>
<!-- GenresController -->
<g id="node10" class="node"><title>GenresController</title>
<path fill="none" stroke="black" d="M92,79.5C92,79.5 178,79.5 178,79.5 184,79.5 190,73.5 190,67.5 190,67.5 190,-121.5 190,-121.5 190,-127.5 184,-133.5 178,-133.5 178,-133.5 92,-133.5 92,-133.5 86,-133.5 80,-127.5 80,-121.5 80,-121.5 80,67.5 80,67.5 80,73.5 86,79.5 92,79.5"/>
<text text-anchor="middle" x="135" y="-118.3" font-family="Times,serif" font-size="14.00">GenresController</text>
<polyline fill="none" stroke="black" points="80,-110.5 190,-110.5 "/>
<text text-anchor="start" x="88" y="-95.3" font-family="Times,serif" font-size="14.00">create</text>
<text text-anchor="start" x="88" y="-80.3" font-family="Times,serif" font-size="14.00">destroy</text>
<text text-anchor="start" x="88" y="-65.3" font-family="Times,serif" font-size="14.00">edit</text>
<text text-anchor="start" x="88" y="-50.3" font-family="Times,serif" font-size="14.00">index</text>
<text text-anchor="start" x="88" y="-35.3" font-family="Times,serif" font-size="14.00">new</text>
<text text-anchor="start" x="88" y="-20.3" font-family="Times,serif" font-size="14.00">show</text>
<text text-anchor="start" x="88" y="-5.3" font-family="Times,serif" font-size="14.00">update</text>
<polyline fill="none" stroke="black" points="80,2.5 190,2.5 "/>
<polyline fill="none" stroke="black" points="80,26.5 190,26.5 "/>
<text text-anchor="start" x="88" y="41.7" font-family="Times,serif" font-size="14.00">_layout</text>
<text text-anchor="start" x="88" y="56.7" font-family="Times,serif" font-size="14.00">genre_params</text>
<text text-anchor="start" x="88" y="71.7" font-family="Times,serif" font-size="14.00">set_genre</text>
</g>
</g>
</svg>
